# xmcd
#
# Track frame offsets:
#	150
#	10474
#	28995
#	37860
#	52076
#	72461
#	85717
#	100239
#	113930
#	125458
#	140546
#	158321
#	175328
#	189810
#	201060
#	204471
#	216104
#	233531
#	244445
#	262594
#	282533
#	298624
#	319127
#	334522
#
# Disc length: 4600 seconds
#
# Revision: 0
# Processed by: cddbd v1.5.2PL0 Copyright (c) Steve Scherf et al.
# Submitted via: EasyCDDAExtractor 15.2.5.1
#
DISCID=5911f618
DTITLE=Elvis Presley - Elvis Country
DYEAR=2012
DGENRE=
TTITLE0=Snowbird
TTITLE1=Tomorrow Never Comes
TTITLE2=Little Cabin on the Hill
TTITLE3=Whole Lotta Shakin' Goin' On
TTITLE4=Funny How Time Slips Away
TTITLE5=I Really Don't Want to Know
TTITLE6=There Goes My Everything
TTITLE7=It's Your Baby, You Rock It
TTITLE8=The Fool
TTITLE9=Faded Love
TTITLE10=I Washed My Hands in Muddy Water
TTITLE11=Make the World Go Away
TTITLE12=I Was Born About Ten Thousand Years Ago
TTITLE13=Where Did They Go, lord
TTITLE14=Faded Love
TTITLE15=The Fool - Take 1
TTITLE16=A Hundred Years From Now 
TTITLE17=Little Cabin On The Hill
TTITLE18=It's Your Baby, You Rock It
TTITLE19=Faded Love - Take 1
TTITLE20=Tomorrow Never Comes - Take 1
TTITLE21=Tomorrow Never Comes - Take 2
TTITLE22=Snowbird - rehearsal 
TTITLE23=Where Did They Go, lord - Take 1
EXTD=
EXTT0=
EXTT1=
EXTT2=
EXTT3=
EXTT4=
EXTT5=
EXTT6=
EXTT7=
EXTT8=
EXTT9=
EXTT10=
EXTT11=
EXTT12=
EXTT13=
EXTT14=
EXTT15=
EXTT16=
EXTT17=
EXTT18=
EXTT19=
EXTT20=
EXTT21=
EXTT22=
EXTT23=
PLAYORDER=
